# File created by Blade
# Date/Time:  Tue Jan 27 17:09:01 2015
#---------------------------------------------------------
:version 1.10
:name HOM
:units
  mass 1.0
  length 1.000000
  angle deg
:documentation
     Acclaim Skeleton File
:root
   axis xyz
   order TX TY TZ RX RY RZ
   position 0.000000 0.000000 0.000000
   orientation 0 0 0
:bonedata
   begin
      id 1
      name Spine_dum
      direction 0.000000 1.000000 0.000000
      length 7.539951
      axis 0.0 0.0 0.0 xyz
   end
   begin
      id 2
      name LeftUpLeg_dum
      direction 1.000000 0.000000 0.000000
      length 3.345476
      axis 0.0 0.0 0.0 xyz
   end
   begin
      id 3
      name RightUpLeg_dum
      direction -1.000000 0.000000 0.000000
      length 3.345476
      axis 0.0 0.0 0.0 xyz
   end
   begin
      id 4
      name Spine
      direction 0.000000 1.000000 0.000000
      length 0.000000
      axis 0.0 0.0 0.0 xyz
      dof rx ry rz
   end
   begin
      id 5
      name Spine_dum1
      direction 0.000000 1.000000 0.000000
      length 15.093809
      axis 0.0 0.0 0.0 xyz
   end
   begin
      id 6
      name Spine_dum2
      direction 0.000000 1.000000 0.000000
      length 9.738928
      axis 0.0 0.0 0.0 xyz
   end
   begin
      id 7
      name Spine_dum3
      direction 0.000000 1.000000 0.000000
      length 9.738928
      axis 0.0 0.0 0.0 xyz
   end
   begin
      id 8
      name Head
      direction 0.000000 1.000000 0.000000
      length 4.527550
      axis 0.0 0.0 0.0 xyz
      dof rx ry rz
   end
   begin
      id 9
      name LeftShoulder
      direction 1.000000 0.000000 0.000000
      length 7.084015
      axis 0.0 0.0 -90.0 xyz
      dof rx ry rz
   end
   begin
      id 10
      name LeftArm
      direction 1.000000 0.000000 0.000000
      length 10.259319
      axis 0.0 0.0 -90.0 xyz
      dof rx ry rz
   end
   begin
      id 11
      name LeftForeArm
      direction 1.000000 0.000000 0.000000
      length 9.896984
      axis 0.0 0.0 -90.0 xyz
      dof ry rz rx
   end
   begin
      id 12
      name LeftHand
      direction 0.000000 0.000000 0.000000
      length 0.000000
      axis 0.0 0.0 -90.0 xyz
      dof rx ry rz
   end
   begin
      id 13
      name LeftHand_dum1
      direction 0.000000 0.000000 0.000000
      length 0.000000
      axis 0.0 0.0 -90.0 xyz
   end
   begin
      id 14
      name LeftHand_dum2
      direction 1.000000 0.000000 0.000000
      length 3.937000
      axis 0.0 0.0 -90.0 xyz
   end
   begin
      id 15
      name LeftHandThumb1
      direction 0.000000 0.000000 1.000000
      length 3.937000
      axis 0.0 0.0 -90.0 xyz
      dof rx rz ry
   end
   begin
      id 16
      name RightShoulder
      direction -1.000000 0.000000 0.000000
      length 7.084015
      axis 0.0 0.0 90.0 xyz
      dof rx ry rz
   end
   begin
      id 17
      name RightArm
      direction -1.000000 0.000000 0.000000
      length 10.259319
      axis 0.0 0.0 90.0 xyz
      dof rx ry rz
   end
   begin
      id 18
      name RightForeArm
      direction -1.000000 0.000000 0.000000
      length 9.896984
      axis 0.0 0.0 90.0 xyz
      dof ry rz rx
   end
   begin
      id 19
      name RightHand
      direction 0.000000 0.000000 0.000000
      length 0.000000
      axis 0.0 0.0 90.0 xyz
      dof rx ry rz
   end
   begin
      id 20
      name RightHand_dum1
      direction 0.000000 0.000000 0.000000
      length 0.000000
      axis 0.0 0.0 90.0 xyz
   end
   begin
      id 21
      name RightHand_dum2
      direction -1.000000 0.000000 0.000000
      length 3.937000
      axis 0.0 0.0 90.0 xyz
   end
   begin
      id 22
      name RightHandThumb1
      direction 0.000000 0.000000 1.000000
      length 3.937000
      axis 0.0 0.0 90.0 xyz
      dof rx rz ry
   end
   begin
      id 23
      name LeftUpLeg
      direction 0.000000 -1.000000 0.000000
      length 19.114733
      axis 0.0 0.0 0.0 xyz
      dof rx ry rz
   end
   begin
      id 24
      name LeftLeg
      direction 0.000000 -1.000000 0.000000
      length 16.045604
      axis 0.0 0.0 0.0 xyz
      dof rx ry rz
   end
   begin
      id 25
      name LeftFoot
      direction 0.000000 -0.258819 0.965926
      length 5.543155
      axis 15.0 0.0 0.0 xyz
      dof rx ry rz
   end
   begin
      id 26
      name LeftToeBase
      direction 0.000000 0.000000 1.000000
      length 2.952750
      axis 0.0 0.0 0.0 xyz
      dof rx ry rz
   end
   begin
      id 27
      name RightUpLeg
      direction 0.000000 -1.000000 0.000000
      length 19.114733
      axis 0.0 0.0 0.0 xyz
      dof rx ry rz
   end
   begin
      id 28
      name RightLeg
      direction 0.000000 -1.000000 0.000000
      length 16.045604
      axis 0.0 0.0 0.0 xyz
      dof rx ry rz
   end
   begin
      id 29
      name RightFoot
      direction 0.000000 -0.258819 0.965926
      length 5.543155
      axis 15.0 0.0 0.0 xyz
      dof rx ry rz
   end
   begin
      id 30
      name RightToeBase
      direction 0.000000 0.000000 1.000000
      length 2.952750
      axis 0.0 0.0 0.0 xyz
      dof rx ry rz
   end
:hierarchy
   begin
      root Spine_dum LeftUpLeg_dum RightUpLeg_dum
      Spine_dum Spine
      LeftUpLeg_dum LeftUpLeg
      RightUpLeg_dum RightUpLeg
      Spine Spine_dum1 Spine_dum2 Spine_dum3
      Spine_dum1 Head
      Spine_dum2 LeftShoulder
      Spine_dum3 RightShoulder
      LeftShoulder LeftArm
      LeftArm LeftForeArm
      LeftForeArm LeftHand
      LeftHand LeftHand_dum1 LeftHand_dum2
      LeftHand_dum1 LeftHandThumb1
      RightShoulder RightArm
      RightArm RightForeArm
      RightForeArm RightHand
      RightHand RightHand_dum1 RightHand_dum2
      RightHand_dum1 RightHandThumb1
      LeftUpLeg LeftLeg
      LeftLeg LeftFoot
      LeftFoot LeftToeBase
      RightUpLeg RightLeg
      RightLeg RightFoot
      RightFoot RightToeBase
   end

# File created by Blade
# Date/Time:  Tue Jan 27 17:08:52 2015
# Frame Rate: 120.000 fps
#------------------------------------------------------
:FULLY-SPECIFIED
:DEGREES
2699
root 1.345326 35.613807 -0.732286 6.607202 -47.981373 -15.813421
Spine 17.902422 18.383088 11.289093
Head -1.291773 -16.609918 -2.810781
LeftShoulder -7.540637 -5.951397 3.595587
LeftArm -25.920787 -41.047876 -33.064739
LeftForeArm 12.337027 -0.000000 120.011084
LeftHand -27.904325 -0.000000 32.391842
LeftHandThumb1 -26.253704 0.000000 33.147579
RightShoulder 6.365566 -19.107577 -9.789975
RightArm 29.343904 -20.469063 56.653117
RightForeArm 188.289906 -0.000000 69.055177
RightHand -0.522072 -0.000000 13.277664
RightHandThumb1 -24.326973 -0.000000 -32.862282
LeftUpLeg -15.387920 20.340419 3.331409
LeftLeg 39.234348 -0.000000 -0.000000
LeftFoot -30.397214 18.271111 -10.196451
LeftToeBase 11.008514 -0.000000 -0.000000
RightUpLeg -101.844859 -25.158509 43.825144
RightLeg 93.215517 -0.000000 -0.000000
RightFoot 16.421288 10.111941 22.629200
RightToeBase 6.343789 -0.000000 -0.000000
2700
root 1.345930 35.604380 -0.752361 6.602433 -47.721917 -15.873721
Spine 17.997494 18.160812 11.337788
Head -1.205891 -16.794827 -2.772573
LeftShoulder -7.481348 -6.002554 3.622874
LeftArm -25.907398 -40.947326 -33.070097
LeftForeArm 12.320144 -0.000000 120.256373
LeftHand -28.005589 -0.000000 32.422402
LeftHandThumb1 -26.253704 0.000000 33.147579
RightShoulder 6.290197 -19.120177 -9.680314
RightArm 29.276486 -20.329600 56.681806
RightForeArm 188.191717 -0.000000 68.976134
RightHand -0.492246 -0.000000 13.416998
RightHandThumb1 -24.326973 -0.000000 -32.862282
LeftUpLeg -15.474854 20.344169 3.426278
LeftLeg 39.385158 -0.000000 -0.000000
LeftFoot -30.415751 18.097181 -10.135583
LeftToeBase 11.010661 -0.000000 -0.000000
RightUpLeg -102.130813 -24.987464 44.014401
RightLeg 93.057406 -0.000000 -0.000000
RightFoot 15.633338 9.621173 22.380405
RightToeBase 6.536899 -0.000000 -0.000000
2701
root 1.348681 35.597773 -0.774679 6.633673 -47.486100 -15.958232
Spine 18.088716 17.996296 11.399109
Head -1.195130 -17.023337 -2.684226
LeftShoulder -7.422301 -6.073490 3.659721
LeftArm -25.890127 -40.837736 -33.113424
LeftForeArm 12.282833 -0.000000 120.490254
LeftHand -28.024600 -0.000000 32.508868
LeftHandThumb1 -26.253704 0.000000 33.147579
RightShoulder 6.194556 -19.158051 -9.557124
RightArm 29.219351 -20.221211 56.686402
RightForeArm 188.476175 -0.000000 68.871141
RightHand -0.726587 -0.000000 13.713371
RightHandThumb1 -24.326973 -0.000000 -32.862282
LeftUpLeg -15.573769 20.315334 3.521697
LeftLeg 39.509799 -0.000000 -0.000000
LeftFoot -30.422669 17.990769 -10.122207
LeftToeBase 10.971860 -0.000000 -0.000000
RightUpLeg -102.447872 -24.789784 44.342421
RightLeg 92.899620 -0.000000 -0.000000
RightFoot 14.434654 8.572199 21.749909
RightToeBase 6.501406 -0.000000 -0.000000
2702
root 1.350805 35.594425 -0.792076 6.634038 -47.270422 -16.008957
Spine 18.177632 17.852197 11.417291
Head -1.133368 -17.223956 -2.569492
LeftShoulder -7.394980 -6.147465 3.707672
LeftArm -25.870499 -40.701619 -33.166259
LeftForeArm 12.245474 -0.000000 120.725020
LeftHand -28.022204 -0.000000 32.668236
LeftHandThumb1 -26.253704 0.000000 33.147579
RightShoulder 6.112552 -19.148824 -9.410114
RightArm 29.069871 -20.109406 56.719129
RightForeArm 188.525592 0.000000 68.831743
RightHand -0.802328 -0.000000 13.927237
RightHandThumb1 -24.326973 -0.000000 -32.862282
LeftUpLeg -15.636624 20.251398 3.592116
LeftLeg 39.588717 -0.000000 -0.000000
LeftFoot -30.406503 17.928375 -10.094476
LeftToeBase 10.924230 -0.000000 -0.000000
RightUpLeg -102.774955 -24.627871 44.731437
RightLeg 92.712013 -0.000000 -0.000000
RightFoot 12.857649 7.203936 20.863834
RightToeBase 6.484174 -0.000000 -0.000000
2703
root 1.349494 35.598124 -0.797935 6.525848 -47.075415 -16.086122
Spine 18.428437 17.701920 11.542874
Head -1.166230 -17.427010 -2.513042
LeftShoulder -7.345311 -6.247945 3.696366
LeftArm -25.898270 -40.581062 -33.192132
LeftForeArm 12.199548 -0.000000 120.939176
LeftHand -28.026630 -0.000000 32.801951
LeftHandThumb1 -26.253704 0.000000 33.147579
RightShoulder 6.041623 -19.175814 -9.313320
RightArm 28.961207 -19.936012 56.745918
RightForeArm 188.509989 -0.000000 68.792696
RightHand -0.826541 -0.000000 14.111755
RightHandThumb1 -24.326973 -0.000000 -32.862282
LeftUpLeg -15.509197 20.141888 3.724149
LeftLeg 39.603669 -0.000000 -0.000000
LeftFoot -30.402605 17.878177 -10.124969
LeftToeBase 10.905435 -0.000000 -0.000000
RightUpLeg -103.000843 -24.600928 45.189023
RightLeg 92.552985 -0.000000 -0.000000
RightFoot 10.851136 5.605667 19.780678
RightToeBase 6.909103 -0.000000 -0.000000
2704
root 1.347591 35.600691 -0.813592 6.579537 -46.950515 -16.196108
Spine 18.493859 17.676309 11.588500
Head -1.117295 -17.616554 -2.386586
LeftShoulder -7.316617 -6.302961 3.758621
LeftArm -25.937472 -40.448691 -33.235907
LeftForeArm 12.161553 -0.000000 121.134218
LeftHand -27.976086 -0.000000 32.999370
LeftHandThumb1 -26.253704 0.000000 33.147579
RightShoulder 5.969854 -19.221801 -9.185002
RightArm 28.815681 -19.793484 56.824404
RightForeArm 188.597499 0.000000 68.766372
RightHand -0.935373 -0.000000 14.342795
RightHandThumb1 -24.326973 -0.000000 -32.862282
LeftUpLeg -15.540889 20.104211 3.828354
LeftLeg 39.650326 -0.000000 -0.000000
LeftFoot -30.394756 17.832342 -10.135603
LeftToeBase 10.912334 -0.000000 -0.000000
RightUpLeg -103.269854 -24.408153 45.768787
RightLeg 92.357610 -0.000000 -0.000000
RightFoot 8.484333 3.637314 18.416271
RightToeBase 6.857856 -0.000000 -0.000000
